<svg version="1.2" xmlns="http://www.w3.org/2000/svg" viewBox="0 0 1920 1920" width="1920" height="1920">
	<title>bull</title>
	<style>
		.s0 { fill: #e81d2d } 
		.s1 { fill: #ffffff } 
	</style>
	<path id="path10 copy" fill-rule="evenodd" class="s0" d="m1537.9 300.3l53.3 193.4 267.3-4.6z"/>
	<path id="path4 copy 2" fill-rule="evenodd" class="s0" d="m1410.1 1057.7l-267.2 104.7 1.1 205.8 213.8-96.7z"/>
	<path id="path3 copy 3" fill-rule="evenodd" class="s0" d="m1136.7 535.4l-108.3 151-108.3 364.5-145.3 154-97.3 3 52.2 159.1h135.4l236.7-230.6-91.5-109.7 80.3-173.1 296.9-108.8 50.4-205.3z"/>
	<path id="path5 copy 3" fill-rule="evenodd" class="s0" d="m520.6 1414.2l582.2 1.2-184.2 328.6-324.1 17-101.2-71.6z"/>
	<path id="path6 copy 3" fill-rule="evenodd" class="s1" d="m1524.8 355.9l-116 428.7-290.9 105.7-67.1 135.4 78.5 95.5 531-202.4z"/>
	<path id="path7 copy 3" fill-rule="evenodd" class="s1" d="m1107.7 1185.8l-197.9 188.7 202.5-2.2z"/>
	<path id="path8 copy 2" fill-rule="evenodd" class="s1" d="m296.2 425.7l-234.2 587.9 304.7 94.4 62.6-222.9-124-33z"/>
	<path id="path9 copy 2" fill-rule="evenodd" class="s0" d="m684 493l766.8 3.7 68.8-203.7-232.1-134z"/>
	<path id="path11 copy 2" fill-rule="evenodd" class="s0" d="m768.3 530.2h321.7l-99.6 141.6-103.5 355.1-121.4 136.3-168 4-70.5-85.8 108.6-403.8z"/>
	<path id="path12 copy 2" fill-rule="evenodd" class="s0" d="m643.2 530.2h79.3l-121.6 131.9-114.4 424.9 94.7 119.8 62.2-1.1 47.8 155.1-171.2 1-147.8-150 150.4-545.6z"/>
</svg>